<svg width="220" height="67" viewBox="0 0 220 67" fill="none" xmlns="http://www.w3.org/2000/svg">
  <path d="M134.248 38.7719H135.379C136.254 38.7719 136.947 39.5774 136.947 40.5842V49.4626C136.947 53.014 134.905 55.229 131.678 55.229C128.414 55.229 126.354 53.0323 126.354 49.4626V17.72C126.354 14.2053 128.396 11.9536 131.678 11.9536C134.905 11.9536 136.947 14.2053 136.947 17.72V28.5389C136.947 29.5457 136.254 30.3512 135.379 30.3512H130.638V49.3528C130.638 50.9088 131.039 51.0003 131.678 51.0003C132.279 51.0003 132.68 50.9088 132.68 49.3528V40.5842C132.68 39.5774 133.373 38.7719 134.248 38.7719ZM132.68 17.8665C132.68 16.3104 132.297 16.164 131.678 16.164C131.021 16.164 130.638 16.3104 130.638 17.8665V26.3421H132.68V17.8665Z" fill="#537A24"/>
  <path d="M76.1406 17.72C76.1406 14.2053 78.1827 11.9536 81.4647 11.9536C84.6919 11.9536 86.734 14.2053 86.734 17.72V21.3263C86.734 22.3331 86.0412 23.1386 85.166 23.1386H84.0355C83.1603 23.1386 82.4675 22.3331 82.4675 21.3263V18.2692C82.4675 16.4569 81.9934 16.164 81.4647 16.164C80.8994 16.164 80.4254 16.4569 80.4254 18.2692V49.3528C80.4254 50.9088 80.8265 51.0003 81.4647 51.0003C82.0664 51.0003 82.4675 50.9088 82.4675 49.3528V40.5842C82.4675 39.5774 83.1603 38.7719 84.0355 38.7719H85.166C86.0412 38.7719 86.734 39.5774 86.734 40.5842V49.4626C86.734 53.014 84.6919 55.229 81.4647 55.229C78.201 55.229 76.1406 53.0323 76.1406 49.4626V17.72Z" fill="#537A24"/>
  <path d="M99.0954 49.4443C99.0954 52.9957 97.0533 55.2107 93.826 55.2107C90.5623 55.2107 88.502 53.014 88.502 49.4443V17.72C88.502 14.2053 90.5441 11.9536 93.826 11.9536C97.0533 11.9536 99.0954 14.2053 99.0954 17.72V49.4443ZM94.8288 17.8665C94.8288 16.3104 94.4459 16.164 93.826 16.164C93.1696 16.164 92.7867 16.3104 92.7867 17.8665V49.3345C92.7867 50.8905 93.1878 50.982 93.826 50.982C94.4277 50.982 94.8288 50.8905 94.8288 49.3345V17.8665Z" fill="#537A24"/>
  <path d="M103.837 54.808H102.707C101.832 54.808 101.139 54.0025 101.139 52.9957V5.78446C101.139 4.77763 101.832 3.97217 102.707 3.97217H103.837C104.712 3.97217 105.405 4.77763 105.405 5.78446V52.9957C105.405 54.0025 104.712 54.808 103.837 54.808Z" fill="#537A24"/>
  <path d="M111.641 13.052L111.951 14.6629H112.133C112.698 13.2167 113.665 11.9536 115.05 11.9536C116.582 11.9536 117.311 12.7042 118.059 14.4066C118.752 12.5943 119.536 11.9536 121.104 11.9536C124.367 11.9536 124.422 14.5531 124.422 18.1777V53.014C124.422 54.0208 123.729 54.8263 122.854 54.8263H121.724C120.848 54.8263 120.156 54.0208 120.156 53.014V19.0197C120.156 18.0129 120.119 16.9145 119.116 16.9145C118.241 16.9145 118.205 18.0129 118.205 19.0197V52.9957C118.205 54.0025 117.512 54.808 116.637 54.808H115.506C114.631 54.808 113.938 54.0025 113.938 52.9957V19.0197C113.938 18.0129 113.902 16.9145 112.899 16.9145C112.024 16.9145 111.987 18.0129 111.987 19.0197V52.9957C111.987 54.0025 111.294 54.808 110.419 54.808H109.289C108.414 54.808 107.721 54.0025 107.721 52.9957V14.2053C107.721 13.1984 108.414 12.393 109.289 12.393H110.984C111.294 12.4113 111.55 12.6675 111.641 13.052Z" fill="#537A24"/>
  <path d="M141.086 3.84424C142.563 3.84424 143.748 5.2538 143.748 6.95626C143.748 8.6038 142.563 9.95845 141.086 9.95845C139.645 9.95845 138.424 8.6038 138.424 6.95626C138.424 5.2355 139.645 3.84424 141.086 3.84424ZM141.706 54.8082H140.575C139.7 54.8082 139.007 54.0027 139.007 52.9959V14.2054C139.007 13.1986 139.7 12.3931 140.575 12.3931H141.706C142.581 12.3931 143.274 13.1986 143.274 14.2054V52.9959C143.274 54.0027 142.563 54.8082 141.706 54.8082Z" fill="#537A24"/>
  <path d="M155.855 53.014C155.855 54.0208 155.162 54.8263 154.287 54.8263H152.5C152.154 54.8263 151.844 54.5334 151.807 54.1307L151.589 52.4831H151.406C150.531 54.4968 149.929 55.2473 148.179 55.2473C146.301 55.2473 145.262 53.8927 145.262 51.2932V40.4195C145.262 38.7719 145.79 37.4173 146.793 36.264L151.151 31.3031C151.461 30.9553 151.625 30.4976 151.625 30.0033V16.9695C151.625 16.5667 151.37 16.164 151.023 16.164H150.677C149.546 16.164 149.583 17.5186 149.583 17.5186V21.3263C149.583 22.3331 148.89 23.1386 148.015 23.1386H146.83C145.955 23.1386 145.262 22.3331 145.262 21.3263V17.72C145.262 14.2053 147.304 11.9536 150.586 11.9536C153.813 11.9536 155.855 14.2053 155.855 17.72V53.014ZM151.589 36.5203L149.984 38.479C149.674 38.8268 149.546 39.2296 149.546 39.7238V49.1514C149.546 49.902 149.984 50.3047 150.586 50.3047C151.151 50.3047 151.589 49.7006 151.589 48.8951V36.5203Z" fill="#537A24"/>
  <path d="M163.495 53.1239L160.578 14.3335C160.487 13.2717 161.234 12.3198 162.146 12.3198H163.24C164.06 12.3198 164.717 13.0155 164.808 13.9674L165.683 24.237C166.157 29.8936 166.157 42.781 166.285 48.0532H166.467C166.686 44.0991 166.595 32.0171 166.996 28.063L168.217 13.9857C168.254 13.0338 168.965 12.3381 169.749 12.3381H170.752C171.718 12.3381 172.448 13.29 172.32 14.3518L169.22 53.1422C169.093 54.0941 168.436 54.7532 167.652 54.7532H165.081C164.279 54.7349 163.586 54.0392 163.495 53.1239Z" fill="#6EB141"/>
  <path d="M181.401 38.6987H182.531C183.406 38.6987 184.099 39.5041 184.099 40.511V49.3894C184.099 52.9408 182.057 55.1558 178.83 55.1558C175.566 55.1558 173.506 52.9591 173.506 49.3894V17.6468C173.506 14.132 175.548 11.8804 178.83 11.8804C182.057 11.8804 184.099 14.132 184.099 17.6468V28.4656C184.099 29.4724 183.406 30.2779 182.531 30.2779H177.791V49.2796C177.791 50.8356 178.192 50.9271 178.83 50.9271C179.432 50.9271 179.833 50.8356 179.833 49.2796V40.511C179.833 39.5041 180.526 38.6987 181.401 38.6987ZM179.833 17.7932C179.833 16.2372 179.45 16.0908 178.83 16.0908C178.174 16.0908 177.791 16.2372 177.791 17.7932V26.2689H179.833V17.7932Z" fill="#6EB141"/>
  <path d="M185.885 52.9224V14.132C185.885 13.1252 186.578 12.3197 187.453 12.3197H189.148C189.458 12.3197 189.714 12.576 189.805 12.9238L190.115 14.2785H190.297C190.862 12.6675 192.048 11.8804 193.214 11.8804C196.387 11.8804 196.478 14.5347 196.478 17.903V21.4544C196.478 22.4612 195.785 23.2667 194.91 23.2667H193.78C192.904 23.2667 192.212 22.4612 192.212 21.4544V18.9465C192.212 17.9397 192.175 16.8413 191.3 16.8413C190.206 16.8413 190.17 17.9397 190.17 18.9465V52.9224C190.17 53.9293 189.477 54.7347 188.601 54.7347H187.471C186.578 54.7347 185.885 53.9293 185.885 52.9224Z" fill="#6EB141"/>
  <path d="M207.618 5.71122V52.9224C207.618 53.9293 206.925 54.7347 206.05 54.7347H204.354C204.008 54.7347 203.753 54.4784 203.662 54.0757L203.443 52.6661H203.26C202.604 53.9109 201.474 55.1191 200.216 55.1191C198.556 55.1191 197.043 53.9109 197.043 51.1101V23.9623C197.043 21.1066 198.575 19.8984 200.216 19.8984C201.565 19.8984 202.568 21.1432 203.169 22.4978H203.352V5.71122C203.352 4.70439 204.044 3.89893 204.92 3.89893H206.05C206.925 3.91723 207.618 4.7227 207.618 5.71122ZM201.31 48.1262C201.31 49.9385 201.784 50.2314 202.349 50.2314C202.878 50.2314 203.352 49.9385 203.352 48.1262V26.9645C203.352 25.1522 202.878 24.8593 202.349 24.8593C201.784 24.8593 201.31 25.1522 201.31 26.9645V48.1262Z" fill="#6EB141"/>
  <path d="M217.301 38.6987H218.432C219.307 38.6987 220 39.5041 220 40.511V49.3894C220 52.9408 217.958 55.1558 214.73 55.1558C211.467 55.1558 209.406 52.9591 209.406 49.3894V17.6468C209.406 14.132 211.448 11.8804 214.73 11.8804C217.958 11.8804 220 14.132 220 17.6468V28.4656C220 29.4724 219.307 30.2779 218.432 30.2779H213.691V49.2796C213.691 50.8356 214.092 50.9271 214.73 50.9271C215.332 50.9271 215.733 50.8356 215.733 49.2796V40.511C215.733 39.5041 216.426 38.6987 217.301 38.6987ZM215.733 17.7932C215.733 16.2372 215.35 16.0908 214.73 16.0908C214.074 16.0908 213.691 16.2372 213.691 17.7932V26.2689H215.733V17.7932Z" fill="#6EB141"/>
  <path d="M29.4649 29.253C32.3275 27.6055 35.2265 25.8298 37.9797 24.2555C38.4902 23.9626 38.9825 23.6514 39.5295 23.45C41.2252 22.8459 43.2308 23.5965 44.106 25.0793C44.963 26.5438 44.5436 28.6673 43.1397 29.8388C42.5927 30.2965 41.9727 30.6443 41.3528 31.0104C38.3808 32.7312 35.3906 34.397 32.4551 36.1727C30.4859 37.3626 28.6626 37.4541 26.6388 36.2643C21.2418 33.0607 15.7901 29.9487 10.3566 26.8C9.59085 26.3607 7.34818 25.2074 7.34818 25.2074C7.34818 25.2074 7.36642 26.6536 7.34818 27.1112C7.32995 32.9509 7.31172 45.6003 7.34818 46.241C14.6049 50.4697 22.0987 54.7899 29.4649 59.0918C36.7581 54.8449 44.1425 50.5612 51.4539 46.2959C51.4357 45.6186 51.4539 30.2599 51.5269 23.1755C51.5451 21.3632 50.8705 20.3563 49.3389 19.4959C43.632 16.3107 37.9432 13.0888 32.3822 9.64731C30.176 8.27436 28.535 8.3842 26.4017 9.73884C24.1773 11.1484 22.044 12.3017 19.8743 13.5831C18.6891 14.2787 17.5587 14.2421 16.3735 13.5831C13.9668 12.1735 13.6751 9.09813 15.8813 7.37737C16.9023 6.59021 24.4326 2.26999 27.0581 0.71398C28.6626 -0.237933 30.1577 -0.256239 31.7987 0.71398C39.8395 5.40032 47.9167 10.0684 55.994 14.6998C57.9631 15.8347 58.966 17.3175 58.9295 19.7156C58.8383 28.9968 58.8748 38.2779 58.9113 47.5774C58.9113 49.6459 58.2366 51.0921 56.3404 52.1539C48.2996 56.7304 40.2953 61.3984 32.3457 66.1214C30.3401 67.3112 28.6626 67.3296 26.6023 66.0847C18.8168 61.435 10.9583 56.9134 3.08165 52.4468C0.911915 51.2203 -0.0179703 49.6459 0.000262718 47.138C0.091428 38.3145 0.109661 19.2214 0.109661 18.5074C0.0549619 15.8347 2.77169 13.8943 5.67074 15.4869C9.18972 17.4091 12.654 19.441 16.1183 21.4547C20.0566 23.7063 28.8085 28.8869 29.4649 29.253Z" fill="#537A24"/>
  <path d="M44.1066 39.2483C43.2314 37.7656 41.2258 37.015 39.5301 37.6191C38.9831 37.8205 38.4909 38.1317 37.9803 38.4246C35.2454 39.9989 32.3645 41.683 29.502 43.3306C28.8273 42.9828 17.067 36.1912 16.8118 36.0448C16.3012 35.7519 15.8089 35.4407 15.2619 35.2393C13.5663 34.6352 11.5606 35.3858 10.6855 36.8686C9.8285 38.333 10.2479 40.4565 11.6518 41.6281C12.1988 42.0858 12.8187 42.4336 13.4386 42.7997C14.6785 43.5319 26.0924 50.1038 26.6394 50.4333C28.6632 51.6232 30.4865 51.55 32.4557 50.3418C35.3912 48.5661 38.3815 46.9003 41.3534 45.1795C41.9734 44.8134 42.5933 44.4656 43.1403 44.0079C44.5442 42.8363 44.9636 40.7128 44.1066 39.2483Z" fill="#6EB141"/>
</svg>
